<svg id="pill_FILL0_wght400_GRAD0_opsz48" xmlns="http://www.w3.org/2000/svg" width="24" height="24" viewBox="0 0 24 24">
  <path id="pill_FILL0_wght400_GRAD0_opsz48-2" data-name="pill_FILL0_wght400_GRAD0_opsz48" d="M125-824a4.824,4.824,0,0,1-3.544-1.456A4.824,4.824,0,0,1,120-829a4.941,4.941,0,0,1,.378-1.911,4.964,4.964,0,0,1,1.089-1.622l6-6a4.965,4.965,0,0,1,1.622-1.089A4.941,4.941,0,0,1,131-840a4.824,4.824,0,0,1,3.544,1.456A4.824,4.824,0,0,1,136-835a4.941,4.941,0,0,1-.378,1.911,4.965,4.965,0,0,1-1.089,1.622l-6,6a4.965,4.965,0,0,1-1.622,1.089A4.941,4.941,0,0,1,125-824Zm6.067-5.889L133.6-832.4a3.587,3.587,0,0,0,.789-1.189,3.686,3.686,0,0,0,.278-1.411,3.538,3.538,0,0,0-1.067-2.6,3.538,3.538,0,0,0-2.6-1.067,3.686,3.686,0,0,0-1.411.278,3.587,3.587,0,0,0-1.189.789l-2.511,2.533ZM125-825.333a3.714,3.714,0,0,0,1.4-.278,3.56,3.56,0,0,0,1.2-.789l2.511-2.533-5.178-5.178L122.4-831.6a3.588,3.588,0,0,0-.789,1.189,3.686,3.686,0,0,0-.278,1.411,3.538,3.538,0,0,0,1.067,2.6A3.538,3.538,0,0,0,125-825.333Z" transform="translate(-116 844)" fill="#40c057"/>
</svg>
